<svg width="104" height="104" viewBox="0 0 104 104" fill="none" xmlns="http://www.w3.org/2000/svg">
<rect width="104" height="104" fill="#002532"/>
<g transform="translate(20, 34.9) scale(1.946)" fill="#ffffff">
<path d="M0 17.335L0.969493 17.5915C0.969493 17.5915 12.8282 13.981 16.4379 13.7349C20.0475 13.981 31.9066 17.5915 31.9066 17.5915L32.8759 17.335C32.8759 17.335 22.5623 10.2554 16.4379 10.1177C10.3135 10.2554 0 17.335 0 17.335Z"/>
<path d="M32.8759 0.25651L31.9066 0C31.9066 0 20.0475 3.61049 16.4382 3.85658C12.8284 3.61049 0.969245 0 0.969245 0L0 0.25651C0 0.25651 10.3135 7.33609 16.4382 7.47377C22.5623 7.33609 32.8759 0.25651 32.8759 0.25651Z"/>
</g>
</svg>
